<mxfile host="app.diagrams.net" agent="Mozilla/5.0 (Windows NT 10.0; Win64; x64) AppleWebKit/537.36 (KHTML, like Gecko) Chrome/136.0.0.0 Safari/537.36" version="27.0.6">
  <diagram name="Страница — 1" id="o6EN9a6bm2n5t95lFAL9">
    <mxGraphModel dx="1603" dy="905" grid="1" gridSize="10" guides="1" tooltips="1" connect="1" arrows="1" fold="1" page="1" pageScale="1" pageWidth="827" pageHeight="1169" math="0" shadow="0">
      <root>
        <mxCell id="0" />
        <mxCell id="1" parent="0" />
        <mxCell id="2ZymIILg8_Ki4qeF2K2y-4" value="«component»&lt;br&gt;&lt;div&gt;&lt;b&gt;User Interface Service&lt;/b&gt;&lt;/div&gt;&lt;div&gt;&amp;nbsp;(React)&amp;nbsp;&lt;/div&gt;" style="html=1;dropTarget=0;whiteSpace=wrap;fillColor=#dae8fc;strokeColor=#6c8ebf;" vertex="1" parent="1">
          <mxGeometry x="1040" y="240" width="160" height="90" as="geometry" />
        </mxCell>
        <mxCell id="2ZymIILg8_Ki4qeF2K2y-6" value="«component»&lt;br&gt;&lt;div&gt;&lt;b&gt;Core Blockchain Service&lt;/b&gt;&lt;/div&gt;&lt;div&gt;(C++)&lt;/div&gt;" style="html=1;dropTarget=0;whiteSpace=wrap;" vertex="1" parent="1">
          <mxGeometry x="840" y="240" width="160" height="90" as="geometry" />
        </mxCell>
        <mxCell id="2ZymIILg8_Ki4qeF2K2y-8" value="«component»&lt;br&gt;&lt;div&gt;&lt;b&gt;DataStorageService&lt;/b&gt;&lt;/div&gt;&lt;div&gt;(MongoDB)&lt;/div&gt;" style="html=1;dropTarget=0;whiteSpace=wrap;" vertex="1" parent="1">
          <mxGeometry x="240" y="240" width="160" height="90" as="geometry" />
        </mxCell>
        <mxCell id="2ZymIILg8_Ki4qeF2K2y-10" value="«component»&lt;br&gt;&lt;div&gt;&lt;b&gt;Simulation Engine&lt;/b&gt;&lt;/div&gt;&lt;div&gt;(Node.js)&lt;/div&gt;" style="html=1;dropTarget=0;whiteSpace=wrap;fillColor=#d5e8d4;strokeColor=#82b366;" vertex="1" parent="1">
          <mxGeometry x="40" y="240" width="160" height="90" as="geometry" />
        </mxCell>
        <mxCell id="2ZymIILg8_Ki4qeF2K2y-12" value="«component»&lt;br&gt;&lt;div&gt;&lt;b&gt;GradeAssignmentService&lt;/b&gt;&lt;/div&gt;&lt;div&gt;(Node.js)&lt;/div&gt;" style="html=1;dropTarget=0;whiteSpace=wrap;" vertex="1" parent="1">
          <mxGeometry x="440" y="240" width="160" height="90" as="geometry" />
        </mxCell>
        <mxCell id="2ZymIILg8_Ki4qeF2K2y-14" value="«component»&lt;br&gt;&lt;div&gt;&lt;b&gt;Blockchain API Service&lt;/b&gt;&lt;/div&gt;&lt;div&gt;(Node.js)&lt;/div&gt;" style="html=1;dropTarget=0;whiteSpace=wrap;" vertex="1" parent="1">
          <mxGeometry x="640" y="240" width="160" height="90" as="geometry" />
        </mxCell>
        <mxCell id="2ZymIILg8_Ki4qeF2K2y-37" value="" style="html=1;whiteSpace=wrap;" vertex="1" parent="1">
          <mxGeometry x="40" y="700" width="1160" height="10" as="geometry" />
        </mxCell>
        <mxCell id="2ZymIILg8_Ki4qeF2K2y-38" style="edgeStyle=orthogonalEdgeStyle;rounded=0;orthogonalLoop=1;jettySize=auto;html=1;exitX=0.5;exitY=1;exitDx=0;exitDy=0;entryX=0.069;entryY=-0.057;entryDx=0;entryDy=0;entryPerimeter=0;dashed=1;dashPattern=12 12;endArrow=none;startFill=0;" edge="1" parent="1" source="2ZymIILg8_Ki4qeF2K2y-10" target="2ZymIILg8_Ki4qeF2K2y-37">
          <mxGeometry relative="1" as="geometry" />
        </mxCell>
        <mxCell id="2ZymIILg8_Ki4qeF2K2y-39" style="edgeStyle=orthogonalEdgeStyle;rounded=0;orthogonalLoop=1;jettySize=auto;html=1;exitX=0.5;exitY=1;exitDx=0;exitDy=0;dashed=1;dashPattern=12 12;endArrow=none;startFill=0;" edge="1" parent="1">
          <mxGeometry relative="1" as="geometry">
            <mxPoint x="319.93" y="330" as="sourcePoint" />
            <mxPoint x="320" y="700" as="targetPoint" />
          </mxGeometry>
        </mxCell>
        <mxCell id="2ZymIILg8_Ki4qeF2K2y-40" style="edgeStyle=orthogonalEdgeStyle;rounded=0;orthogonalLoop=1;jettySize=auto;html=1;exitX=0.5;exitY=1;exitDx=0;exitDy=0;dashed=1;dashPattern=12 12;endArrow=none;startFill=0;" edge="1" parent="1">
          <mxGeometry relative="1" as="geometry">
            <mxPoint x="519.96" y="330" as="sourcePoint" />
            <mxPoint x="520" y="700" as="targetPoint" />
          </mxGeometry>
        </mxCell>
        <mxCell id="2ZymIILg8_Ki4qeF2K2y-41" style="edgeStyle=orthogonalEdgeStyle;rounded=0;orthogonalLoop=1;jettySize=auto;html=1;exitX=0.5;exitY=1;exitDx=0;exitDy=0;endArrow=none;startFill=0;dashed=1;dashPattern=12 12;" edge="1" parent="1">
          <mxGeometry relative="1" as="geometry">
            <mxPoint x="719.9200000000001" y="330" as="sourcePoint" />
            <mxPoint x="720" y="700" as="targetPoint" />
          </mxGeometry>
        </mxCell>
        <mxCell id="2ZymIILg8_Ki4qeF2K2y-42" style="edgeStyle=orthogonalEdgeStyle;rounded=0;orthogonalLoop=1;jettySize=auto;html=1;exitX=0.5;exitY=1;exitDx=0;exitDy=0;endArrow=none;startFill=0;dashed=1;dashPattern=12 12;" edge="1" parent="1">
          <mxGeometry relative="1" as="geometry">
            <mxPoint x="919.9200000000001" y="330" as="sourcePoint" />
            <mxPoint x="920" y="700" as="targetPoint" />
          </mxGeometry>
        </mxCell>
        <mxCell id="2ZymIILg8_Ki4qeF2K2y-43" style="edgeStyle=orthogonalEdgeStyle;rounded=0;orthogonalLoop=1;jettySize=auto;html=1;exitX=0.5;exitY=1;exitDx=0;exitDy=0;endArrow=none;startFill=0;dashed=1;dashPattern=12 12;" edge="1" parent="1">
          <mxGeometry relative="1" as="geometry">
            <mxPoint x="1119.9299999999998" y="330" as="sourcePoint" />
            <mxPoint x="1120" y="700" as="targetPoint" />
          </mxGeometry>
        </mxCell>
        <mxCell id="2ZymIILg8_Ki4qeF2K2y-44" value="" style="html=1;points=[[0,0,0,0,5],[0,1,0,0,-5],[1,0,0,0,5],[1,1,0,0,-5]];perimeter=orthogonalPerimeter;outlineConnect=0;targetShapes=umlLifeline;portConstraint=eastwest;newEdgeStyle={&quot;curved&quot;:0,&quot;rounded&quot;:0};" vertex="1" parent="1">
          <mxGeometry x="115" y="350" width="10" height="170" as="geometry" />
        </mxCell>
        <mxCell id="2ZymIILg8_Ki4qeF2K2y-48" value="" style="html=1;points=[[0,0,0,0,5],[0,1,0,0,-5],[1,0,0,0,5],[1,1,0,0,-5]];perimeter=orthogonalPerimeter;outlineConnect=0;targetShapes=umlLifeline;portConstraint=eastwest;newEdgeStyle={&quot;curved&quot;:0,&quot;rounded&quot;:0};" vertex="1" parent="1">
          <mxGeometry x="715" y="360" width="10" height="210" as="geometry" />
        </mxCell>
        <mxCell id="2ZymIILg8_Ki4qeF2K2y-51" value="" style="html=1;points=[[0,0,0,0,5],[0,1,0,0,-5],[1,0,0,0,5],[1,1,0,0,-5]];perimeter=orthogonalPerimeter;outlineConnect=0;targetShapes=umlLifeline;portConstraint=eastwest;newEdgeStyle={&quot;curved&quot;:0,&quot;rounded&quot;:0};" vertex="1" parent="1">
          <mxGeometry x="1115" y="560" width="10" height="25" as="geometry" />
        </mxCell>
        <mxCell id="2ZymIILg8_Ki4qeF2K2y-64" value="startSimulation()" style="html=1;align=left;spacingLeft=2;endArrow=block;rounded=0;edgeStyle=orthogonalEdgeStyle;curved=0;rounded=0;exitX=1;exitY=0;exitDx=0;exitDy=5;exitPerimeter=0;" edge="1" parent="1">
          <mxGeometry relative="1" as="geometry">
            <mxPoint x="125" y="380" as="sourcePoint" />
            <Array as="points">
              <mxPoint x="125" y="385" />
              <mxPoint x="150" y="385" />
              <mxPoint x="150" y="415" />
            </Array>
            <mxPoint x="125" y="414.9565217391304" as="targetPoint" />
          </mxGeometry>
        </mxCell>
        <mxCell id="2ZymIILg8_Ki4qeF2K2y-68" value="createTransaction" style="html=1;align=left;spacingLeft=2;endArrow=block;rounded=0;edgeStyle=orthogonalEdgeStyle;curved=0;rounded=0;" edge="1" parent="1">
          <mxGeometry relative="1" as="geometry">
            <mxPoint x="520" y="524" as="sourcePoint" />
            <Array as="points">
              <mxPoint x="550" y="554" />
            </Array>
            <mxPoint x="525" y="554.0434782608695" as="targetPoint" />
          </mxGeometry>
        </mxCell>
        <mxCell id="2ZymIILg8_Ki4qeF2K2y-74" value="verifyAndAppend" style="html=1;align=left;spacingLeft=2;endArrow=block;rounded=0;edgeStyle=orthogonalEdgeStyle;curved=0;rounded=0;" edge="1" parent="1">
          <mxGeometry relative="1" as="geometry">
            <mxPoint x="925" y="484" as="sourcePoint" />
            <Array as="points">
              <mxPoint x="955" y="514" />
            </Array>
            <mxPoint x="925" y="514" as="targetPoint" />
          </mxGeometry>
        </mxCell>
        <mxCell id="2ZymIILg8_Ki4qeF2K2y-78" value="" style="html=1;points=[[0,0,0,0,5],[0,1,0,0,-5],[1,0,0,0,5],[1,1,0,0,-5]];perimeter=orthogonalPerimeter;outlineConnect=0;targetShapes=umlLifeline;portConstraint=eastwest;newEdgeStyle={&quot;curved&quot;:0,&quot;rounded&quot;:0};" vertex="1" parent="1">
          <mxGeometry x="915" y="360" width="10" height="170" as="geometry" />
        </mxCell>
        <mxCell id="2ZymIILg8_Ki4qeF2K2y-79" value="processTransaction" style="html=1;verticalAlign=bottom;endArrow=block;curved=0;rounded=0;entryX=0;entryY=0;entryDx=0;entryDy=5;exitX=1;exitY=0;exitDx=0;exitDy=5;exitPerimeter=0;" edge="1" target="2ZymIILg8_Ki4qeF2K2y-78" parent="1" source="2ZymIILg8_Ki4qeF2K2y-48">
          <mxGeometry relative="1" as="geometry">
            <mxPoint x="730" y="365" as="sourcePoint" />
          </mxGeometry>
        </mxCell>
        <mxCell id="2ZymIILg8_Ki4qeF2K2y-80" value="TXAccepted" style="html=1;verticalAlign=bottom;endArrow=open;dashed=1;endSize=8;curved=0;rounded=0;" edge="1" source="2ZymIILg8_Ki4qeF2K2y-78" parent="1" target="2ZymIILg8_Ki4qeF2K2y-48">
          <mxGeometry relative="1" as="geometry">
            <mxPoint x="730" y="435" as="targetPoint" />
            <mxPoint x="910" y="450" as="sourcePoint" />
          </mxGeometry>
        </mxCell>
        <mxCell id="2ZymIILg8_Ki4qeF2K2y-81" value="" style="html=1;points=[[0,0,0,0,5],[0,1,0,0,-5],[1,0,0,0,5],[1,1,0,0,-5]];perimeter=orthogonalPerimeter;outlineConnect=0;targetShapes=umlLifeline;portConstraint=eastwest;newEdgeStyle={&quot;curved&quot;:0,&quot;rounded&quot;:0};" vertex="1" parent="1">
          <mxGeometry x="715" y="600" width="10" height="80" as="geometry" />
        </mxCell>
        <mxCell id="2ZymIILg8_Ki4qeF2K2y-82" value="sendToBlockchainAPI" style="html=1;verticalAlign=bottom;endArrow=block;curved=0;rounded=0;entryX=0;entryY=0;entryDx=0;entryDy=5;" edge="1" target="2ZymIILg8_Ki4qeF2K2y-81" parent="1">
          <mxGeometry relative="1" as="geometry">
            <mxPoint x="520" y="605" as="sourcePoint" />
          </mxGeometry>
        </mxCell>
        <mxCell id="2ZymIILg8_Ki4qeF2K2y-83" value="status" style="html=1;verticalAlign=bottom;endArrow=open;dashed=1;endSize=8;curved=0;rounded=0;exitX=0;exitY=1;exitDx=0;exitDy=-5;" edge="1" source="2ZymIILg8_Ki4qeF2K2y-81" parent="1" target="2ZymIILg8_Ki4qeF2K2y-88">
          <mxGeometry relative="1" as="geometry">
            <mxPoint x="520" y="675" as="targetPoint" />
          </mxGeometry>
        </mxCell>
        <mxCell id="2ZymIILg8_Ki4qeF2K2y-85" value="assignGrades()" style="html=1;verticalAlign=bottom;endArrow=block;curved=0;rounded=0;entryX=0;entryY=0;entryDx=0;entryDy=5;" edge="1" parent="1" source="2ZymIILg8_Ki4qeF2K2y-44">
          <mxGeometry relative="1" as="geometry">
            <mxPoint x="130" y="435" as="sourcePoint" />
            <mxPoint x="515" y="435" as="targetPoint" />
          </mxGeometry>
        </mxCell>
        <mxCell id="2ZymIILg8_Ki4qeF2K2y-86" value="getInfo" style="html=1;verticalAlign=bottom;endArrow=open;dashed=1;endSize=8;curved=0;rounded=0;exitX=0;exitY=1;exitDx=0;exitDy=-5;" edge="1" parent="1" target="2ZymIILg8_Ki4qeF2K2y-44">
          <mxGeometry relative="1" as="geometry">
            <mxPoint x="130" y="505" as="targetPoint" />
            <mxPoint x="515" y="505" as="sourcePoint" />
          </mxGeometry>
        </mxCell>
        <mxCell id="2ZymIILg8_Ki4qeF2K2y-88" value="" style="html=1;points=[[0,0,0,0,5],[0,1,0,0,-5],[1,0,0,0,5],[1,1,0,0,-5]];perimeter=orthogonalPerimeter;outlineConnect=0;targetShapes=umlLifeline;portConstraint=eastwest;newEdgeStyle={&quot;curved&quot;:0,&quot;rounded&quot;:0};" vertex="1" parent="1">
          <mxGeometry x="515" y="415" width="10" height="275" as="geometry" />
        </mxCell>
        <mxCell id="2ZymIILg8_Ki4qeF2K2y-91" value="" style="html=1;points=[[0,0,0,0,5],[0,1,0,0,-5],[1,0,0,0,5],[1,1,0,0,-5]];perimeter=orthogonalPerimeter;outlineConnect=0;targetShapes=umlLifeline;portConstraint=eastwest;newEdgeStyle={&quot;curved&quot;:0,&quot;rounded&quot;:0};" vertex="1" parent="1">
          <mxGeometry x="315" y="350" width="10" height="40" as="geometry" />
        </mxCell>
        <mxCell id="2ZymIILg8_Ki4qeF2K2y-96" value="getInfo" style="html=1;verticalAlign=bottom;endArrow=block;curved=0;rounded=0;entryX=0;entryY=0;entryDx=0;entryDy=5;entryPerimeter=0;exitX=1;exitY=0;exitDx=0;exitDy=5;exitPerimeter=0;" edge="1" parent="1" source="2ZymIILg8_Ki4qeF2K2y-44" target="2ZymIILg8_Ki4qeF2K2y-91">
          <mxGeometry width="80" relative="1" as="geometry">
            <mxPoint x="170" y="370" as="sourcePoint" />
            <mxPoint x="250" y="370" as="targetPoint" />
          </mxGeometry>
        </mxCell>
        <mxCell id="2ZymIILg8_Ki4qeF2K2y-98" value="&lt;code data-end=&quot;1804&quot; data-start=&quot;1778&quot;&gt;GET /info&lt;/code&gt;, &lt;code data-end=&quot;1819&quot; data-start=&quot;1806&quot;&gt;GET /blocks&lt;/code&gt;" style="html=1;verticalAlign=bottom;endArrow=block;curved=0;rounded=0;exitX=0;exitY=0;exitDx=0;exitDy=5;exitPerimeter=0;entryX=1;entryY=1;entryDx=0;entryDy=-5;entryPerimeter=0;" edge="1" parent="1" source="2ZymIILg8_Ki4qeF2K2y-51" target="2ZymIILg8_Ki4qeF2K2y-48">
          <mxGeometry width="80" relative="1" as="geometry">
            <mxPoint x="830" y="610" as="sourcePoint" />
            <mxPoint x="910" y="610" as="targetPoint" />
          </mxGeometry>
        </mxCell>
      </root>
    </mxGraphModel>
  </diagram>
</mxfile>
